<?xml version="1.0" standalone="no"?><!DOCTYPE svg PUBLIC "-//W3C//DTD SVG 1.1//EN" "http://www.w3.org/Graphics/SVG/1.1/DTD/svg11.dtd"><svg t="1783241192787" class="icon" viewBox="0 0 1024 1024" version="1.1" xmlns="http://www.w3.org/2000/svg" p-id="7383" width="32" height="32" xmlns:xlink="http://www.w3.org/1999/xlink"><path d="M589.704 501.674L998.27 93.107c20.652-20.653 20.652-54.556 0-75.209l-2.237-2.237c-20.652-20.652-54.556-20.652-75.208 0L512.258 424.745 103.691 15.489c-20.652-20.652-54.556-20.652-75.208 0l-2.238 2.237c-21.168 20.652-21.168 54.556 0 75.208l408.568 408.74L26.245 910.24c-20.652 20.652-20.652 54.556 0 75.208l2.238 2.238c20.652 20.652 54.556 20.652 75.208 0l408.567-408.568 408.568 408.568c20.652 20.652 54.556 20.652 75.208 0l2.237-2.238c20.652-20.652 20.652-54.556 0-75.208L589.704 501.674z" fill="#ffffff" p-id="7384"></path></svg>