<?xml version="1.0" standalone="no"?><!DOCTYPE svg PUBLIC "-//W3C//DTD SVG 1.1//EN" "http://www.w3.org/Graphics/SVG/1.1/DTD/svg11.dtd"><svg t="1783241285238" class="icon" viewBox="0 0 1024 1024" version="1.1" xmlns="http://www.w3.org/2000/svg" p-id="11000" width="32" height="32" xmlns:xlink="http://www.w3.org/1999/xlink"><path d="M105 480a8 8 0 0 1 8-8h799a8 8 0 0 1 8 8v64a8 8 0 0 1-8 8H113a8 8 0 0 1-8-8v-64z" fill="#ffffff" p-id="11001"></path><path d="M480 920a8 8 0 0 1-8-8V112a8 8 0 0 1 8-8h64a8 8 0 0 1 8 8v800a8 8 0 0 1-8 8h-64z" fill="#ffffff" p-id="11002"></path></svg>